<?xml version="1.0" encoding="UTF-8"?>
<!DOCTYPE svg PUBLIC "-//W3C//DTD SVG 1.1//EN" "http://www.w3.org/Graphics/SVG/1.1/DTD/svg11.dtd">
<svg xmlns="http://www.w3.org/2000/svg" version="1.1" width="241px" height="200px" style="shape-rendering:geometricPrecision; text-rendering:geometricPrecision; image-rendering:optimizeQuality; fill-rule:evenodd; clip-rule:evenodd" xmlns:xlink="http://www.w3.org/1999/xlink">
<g><path style="opacity:1" fill="#3a7cbb" d="M -0.5,-0.5 C -0.166667,-0.5 0.166667,-0.5 0.5,-0.5C 0.5,12.5 0.5,25.5 0.5,38.5C 13.5,38.5 26.5,38.5 39.5,38.5C 39.5,25.5 39.5,12.5 39.5,-0.5C 39.8333,-0.5 40.1667,-0.5 40.5,-0.5C 40.5,25.8333 40.5,52.1667 40.5,78.5C 67.1667,78.5 93.8333,78.5 120.5,78.5C 120.5,105.167 120.5,131.833 120.5,158.5C 160.5,158.5 200.5,158.5 240.5,158.5C 240.5,172.167 240.5,185.833 240.5,199.5C 186.833,199.5 133.167,199.5 79.5,199.5C 79.5,172.833 79.5,146.167 79.5,119.5C 52.8333,119.5 26.1667,119.5 -0.5,119.5C -0.5,79.5 -0.5,39.5 -0.5,-0.5 Z"/></g>
<g><path style="opacity:1" fill="#00ff00" d="M 0.5,-0.5 C 13.5,-0.5 26.5,-0.5 39.5,-0.5C 39.5,12.5 39.5,25.5 39.5,38.5C 26.5,38.5 13.5,38.5 0.5,38.5C 0.5,25.5 0.5,12.5 0.5,-0.5 Z"/></g>
<g><path style="opacity:1" fill="#00ff00" d="M 0.5,39.5 C 13.5,39.5 26.5,39.5 39.5,39.5C 39.5,52.5 39.5,65.5 39.5,78.5C 26.5,78.5 13.5,78.5 0.5,78.5C 0.5,65.5 0.5,52.5 0.5,39.5 Z"/></g>
<g><path style="opacity:1" fill="#00ff00" d="M 0.5,79.5 C 13.5,79.5 26.5,79.5 39.5,79.5C 39.5,92.5 39.5,105.5 39.5,118.5C 26.5,118.5 13.5,118.5 0.5,118.5C 0.5,105.5 0.5,92.5 0.5,79.5 Z"/></g>
<g><path style="opacity:1" fill="#00ff00" d="M 40.5,79.5 C 53.5,79.5 66.5,79.5 79.5,79.5C 79.5,92.5 79.5,105.5 79.5,118.5C 66.5,118.5 53.5,118.5 40.5,118.5C 40.5,105.5 40.5,92.5 40.5,79.5 Z"/></g>
<g><path style="opacity:1" fill="#00ff00" d="M 80.5,79.5 C 93.5,79.5 106.5,79.5 119.5,79.5C 119.5,92.5 119.5,105.5 119.5,118.5C 106.5,118.5 93.5,118.5 80.5,118.5C 80.5,105.5 80.5,92.5 80.5,79.5 Z"/></g>
<g><path style="opacity:1" fill="#00ff00" d="M 80.5,119.5 C 93.5,119.5 106.5,119.5 119.5,119.5C 119.5,132.5 119.5,145.5 119.5,158.5C 106.5,158.5 93.5,158.5 80.5,158.5C 80.5,145.5 80.5,132.5 80.5,119.5 Z"/></g>
<g><path style="opacity:1" fill="#00ff00" d="M 80.5,159.5 C 93.5,159.5 106.5,159.5 119.5,159.5C 119.5,172.5 119.5,185.5 119.5,198.5C 106.5,198.5 93.5,198.5 80.5,198.5C 80.5,185.5 80.5,172.5 80.5,159.5 Z"/></g>
<g><path style="opacity:1" fill="#00ff00" d="M 120.5,159.5 C 133.5,159.5 146.5,159.5 159.5,159.5C 159.5,172.5 159.5,185.5 159.5,198.5C 146.5,198.5 133.5,198.5 120.5,198.5C 120.5,185.5 120.5,172.5 120.5,159.5 Z"/></g>
<g><path style="opacity:1" fill="#00ff00" d="M 160.5,159.5 C 173.5,159.5 186.5,159.5 199.5,159.5C 199.5,172.5 199.5,185.5 199.5,198.5C 186.5,198.5 173.5,198.5 160.5,198.5C 160.5,185.5 160.5,172.5 160.5,159.5 Z"/></g>
<g><path style="opacity:1" fill="#00ff00" d="M 200.5,159.5 C 213.5,159.5 226.5,159.5 239.5,159.5C 239.5,172.5 239.5,185.5 239.5,198.5C 226.5,198.5 213.5,198.5 200.5,198.5C 200.5,185.5 200.5,172.5 200.5,159.5 Z"/></g>
</svg>
